HIERARCHY
ROOT Hips
{
	OFFSET 0.00 0.00 0.00
	CHANNELS 6 Xposition Yposition Zposition Xrotation Yrotation Zrotation
	JOINT Spine
	{
		OFFSET 0.00000 1.70439 2.55658
		CHANNELS 3 Xrotation Yrotation Zrotation
		JOINT Spine1
		{
			OFFSET 0.00000 0.59193 3.35699
			CHANNELS 3 Xrotation Yrotation Zrotation
			JOINT Spine2
			{
				OFFSET 0.00000 0.29710 3.39581
				CHANNELS 3 Xrotation Yrotation Zrotation
				JOINT Spine3
				{
					OFFSET 0.00000 0.00000 3.40878
					CHANNELS 3 Xrotation Yrotation Zrotation
					JOINT Neck
					{
						OFFSET 0.00000 -1.27828 8.94804
						CHANNELS 3 Xrotation Yrotation Zrotation
						JOINT Head
						{
							OFFSET 0.00000 -0.81390 4.61586
							CHANNELS 3 Xrotation Yrotation Zrotation
							End Site
							{
								OFFSET 0.00000 0.00001 5.51796
							}
						}
					}
					JOINT RightShoulder
					{
						OFFSET -1.18875 -1.98124 6.41925
						CHANNELS 3 Xrotation Yrotation Zrotation
						JOINT RightArm
						{
							OFFSET -5.90412 0.00000 0.00000
							CHANNELS 3 Xrotation Yrotation Zrotation
							JOINT RightForeArm
							{
								OFFSET -11.94674 0.00000 0.00000
								CHANNELS 3 Xrotation Yrotation Zrotation
								JOINT RightHand
								{
									OFFSET -10.17720 0.00000 0.00000
									CHANNELS 3 Xrotation Yrotation Zrotation
									JOINT RightHandEnd
									{
										OFFSET -2.84518 0.00000 0.00000
										CHANNELS 3 Xrotation Yrotation Zrotation
										End Site
										{
											OFFSET -2.84518 0.00000 0.00000
										}
									}
									JOINT RightHandThumb1
									{
										OFFSET -1.13807 -1.89679 -0.75871
										CHANNELS 3 Yrotation Xrotation Zrotation
										End Site
										{
											OFFSET -2.74823 -0.73639 0.00000
										}
									}
								}
							}
						}
					}
					JOINT LeftShoulder
					{
						OFFSET 1.18875 -1.98124 6.41925
						CHANNELS 3 Xrotation Yrotation Zrotation
						JOINT LeftArm
						{
							OFFSET 5.90412 0.00000 0.00000
							CHANNELS 3 Xrotation Yrotation Zrotation
							JOINT LeftForeArm
							{
								OFFSET 11.94674 0.00000 0.00000
								CHANNELS 3 Xrotation Yrotation Zrotation
								JOINT LeftHand
								{
									OFFSET 10.17720 0.00000 0.00000
									CHANNELS 3 Xrotation Yrotation Zrotation
									JOINT LeftHandEnd
									{
										OFFSET 2.84518 0.00000 0.00000
										CHANNELS 3 Xrotation Yrotation Zrotation
										End Site
										{
											OFFSET 2.84518 0.00000 0.00000
										}
									}
									JOINT LeftHandThumb1
									{
										OFFSET 1.13807 -1.89679 -0.75871
										CHANNELS 3 Yrotation Xrotation Zrotation
										End Site
										{
											OFFSET 2.74823 -0.73639 0.00000
										}
									}
								}
							}
						}
					}
				}
			}
		}
	}
	JOINT RightUpLeg
	{
		OFFSET -3.52662 0.00000 -1.03025
		CHANNELS 3 Xrotation Yrotation Zrotation
		JOINT RightLeg
		{
			OFFSET 0.00001 0.00000 -17.80159
			CHANNELS 3 Xrotation Yrotation Zrotation
			JOINT RightFoot
			{
				OFFSET 0.00001 0.00000 -16.85992
				CHANNELS 3 Xrotation Yrotation Zrotation
				JOINT RightToeBase
				{
					OFFSET 0.00000 -5.42953 -1.97619
					CHANNELS 3 Xrotation Yrotation Zrotation
					End Site
					{
						OFFSET 0.00000 -2.85300 -0.00000
					}
				}
			}
		}
	}
	JOINT LeftUpLeg
	{
		OFFSET 3.52662 0.00000 -1.03025
		CHANNELS 3 Xrotation Yrotation Zrotation
		JOINT LeftLeg
		{
			OFFSET 0.00001 0.00000 -17.80159
			CHANNELS 3 Xrotation Yrotation Zrotation
			JOINT LeftFoot
			{
				OFFSET 0.00001 0.00000 -16.85992
				CHANNELS 3 Xrotation Yrotation Zrotation
				JOINT LeftToeBase
				{
					OFFSET 0.00000 -5.42953 -1.97619
					CHANNELS 3 Xrotation Yrotation Zrotation
					End Site
					{
						OFFSET 0.00000 -2.85300 -0.00000
					}
				}
			}
		}
	}
}
MOTION
Frames: 15
Frame Time: 0.008342
 -2.0943 -100.8273 37.5995 1.4139 1.1452 -174.9872 1.2877 -0.8069 -0.6762 0.8512 0.1919 -0.1199 -1.4456 -0.9107 -1.3133 -0.9408 0.4505 -0.0559 0.5431 -0.6980 -1.8815 -5.9553 2.7694 -0.6005 -1.6758 11.2978 -0.5575 4.6708 2.4087 -4.7890 0.0000 0.0000 9.9057 -0.9300 9.8270 -8.8015 0.0000 0.0000 0.0000 0.0000 -0.0000 -0.0000 -4.9413 -9.0858 -3.8830 13.5012 3.1786 3.0135 -0.0000 -0.0000 -11.4775 -5.9986 -11.9243 -0.6061 -0.0000 -0.0000 0.0000 0.0000 0.0000 0.0000 2.9744 3.3604 -37.0971 11.5677 0.0000 0.0000 -12.8124 -4.2057 3.4663 0.8231 0.0000 0.0000 1.9784 -2.5520 11.9178 10.9115 0.0000 0.0000 -9.2036 6.5346 3.1774 -3.2083 0.0000 -0.0000
 -2.1011 -100.8187 37.5992 1.4242 1.1512 -174.9816 1.2804 -0.7989 -0.6769 0.8519 0.1960 -0.1196 -1.4547 -0.9054 -1.3265 -0.9446 0.4519 -0.0595 0.5429 -0.7133 -1.8866 -5.9425 2.7743 -0.5940 -1.7190 11.3241 -0.5477 4.6853 2.4156 -4.7884 0.0000 0.0000 9.9018 -0.8922 9.7014 -8.8252 0.0000 0.0000 0.0000 0.0000 0.0000 0.0000 -4.9735 -9.0956 -3.8766 13.4779 3.1938 3.0135 -0.0000 -0.0000 -11.4702 -5.9992 -12.0334 -0.5725 0.0000 0.0000 -0.0000 -0.0000 -0.0000 0.0000 3.0080 3.3732 -37.1230 11.5553 0.0000 0.0000 -12.8035 -4.2199 3.4852 0.8021 0.0000 0.0000 2.0052 -2.5370 11.9218 10.9072 0.0000 0.0000 -9.2092 6.5286 3.1707 -3.2101 0.0000 -0.0000
 -2.1098 -100.8079 37.5989 1.4343 1.1584 -174.9766 1.2686 -0.7873 -0.6778 0.8488 0.1983 -0.1204 -1.4623 -0.8973 -1.3403 -0.9495 0.4541 -0.0648 0.5443 -0.7330 -1.8930 -5.9279 2.7792 -0.5854 -1.7745 11.3542 -0.5330 4.6990 2.4236 -4.7865 0.0000 0.0000 9.8943 -0.8478 9.5350 -8.8543 -0.0000 0.0000 -0.0000 0.0000 0.0000 -0.0000 -5.0165 -9.1042 -3.8681 13.4537 3.2112 3.0137 -0.0000 -0.0000 -11.4661 -5.9990 -12.1619 -0.5322 0.0000 -0.0000 -0.0000 0.0000 0.0000 0.0000 3.0463 3.3896 -37.1483 11.5412 0.0000 0.0000 -12.7947 -4.2362 3.5040 0.7780 0.0000 0.0000 2.0365 -2.5178 11.9270 10.9018 0.0000 0.0000 -9.2181 6.5198 3.1640 -3.2110 0.0000 -0.0000
 -2.1205 -100.7943 37.5984 1.4570 1.1695 -174.9735 1.2650 -0.7713 -0.6794 0.8453 0.2014 -0.1214 -1.4733 -0.8882 -1.3549 -0.9545 0.4558 -0.0710 0.5481 -0.7541 -1.8997 -5.9092 2.7809 -0.5768 -1.8400 11.3913 -0.5133 4.7106 2.4283 -4.7830 0.0000 0.0000 9.8837 -0.7988 9.3323 -8.8879 0.0000 0.0000 0.0000 -0.0000 -0.0000 0.0000 -5.0677 -9.1110 -3.8565 13.4297 3.2316 3.0110 -0.0000 -0.0000 -11.4644 -6.0023 -12.3030 -0.4898 0.0000 -0.0000 0.0000 -0.0000 0.0000 0.0000 3.1043 3.4113 -37.1802 11.5237 0.0000 0.0000 -12.7862 -4.2562 3.5305 0.7545 0.0000 0.0000 2.0892 -2.4917 11.9318 10.8896 0.0000 0.0000 -9.2288 6.5083 3.1595 -3.2104 0.0000 -0.0000
 -2.1327 -100.7790 37.5977 1.4780 1.1804 -174.9735 1.2536 -0.7541 -0.6808 0.8433 0.2046 -0.1217 -1.4851 -0.8776 -1.3708 -0.9595 0.4577 -0.0768 0.5533 -0.7777 -1.9072 -5.8890 2.7808 -0.5683 -1.9162 11.4304 -0.4887 4.7212 2.4307 -4.7784 0.0000 0.0000 9.8703 -0.7433 9.1047 -8.9253 0.0000 0.0000 -0.0000 -0.0000 -0.0000 -0.0000 -5.1278 -9.1145 -3.8439 13.4073 3.2543 3.0069 -0.0000 -0.0000 -11.4669 -6.0072 -12.4522 -0.4460 0.0000 0.0000 0.0000 -0.0000 -0.0000 0.0000 3.1631 3.4349 -37.2063 11.5060 0.0000 0.0000 -12.7795 -4.2771 3.5540 0.7321 0.0000 0.0000 2.1440 -2.4631 11.9371 10.8768 0.0000 0.0000 -9.2443 6.4942 3.1577 -3.2078 0.0000 -0.0000
 -2.1462 -100.7619 37.5969 1.5039 1.1925 -174.9777 1.2428 -0.7348 -0.6823 0.8408 0.2077 -0.1220 -1.4975 -0.8658 -1.3854 -0.9640 0.4596 -0.0826 0.5619 -0.8027 -1.9151 -5.8684 2.7788 -0.5608 -1.9994 11.4705 -0.4598 4.7309 2.4292 -4.7720 0.0000 0.0000 9.8536 -0.6839 8.8620 -8.9643 -0.0000 0.0000 -0.0000 -0.0000 -0.0000 0.0000 -5.1915 -9.1152 -3.8305 13.3837 3.2807 3.0004 -0.0000 -0.0000 -11.4734 -6.0136 -12.6022 -0.4039 -0.0000 0.0000 0.0000 0.0000 0.0000 -0.0000 3.2291 3.4611 -37.2281 11.4885 0.0000 0.0000 -12.7753 -4.2990 3.5768 0.7125 0.0000 0.0000 2.2090 -2.4309 11.9420 10.8605 0.0000 0.0000 -9.2634 6.4778 3.1600 -3.2036 0.0000 -0.0000
 -2.1606 -100.7438 37.5959 1.5334 1.2050 -174.9867 1.2325 -0.7143 -0.6839 0.8382 0.2107 -0.1220 -1.5097 -0.8532 -1.3975 -0.9680 0.4616 -0.0879 0.5729 -0.8281 -1.9228 -5.8465 2.7741 -0.5552 -2.0871 11.5092 -0.4273 4.7401 2.4232 -4.7635 0.0000 0.0000 9.8343 -0.6211 8.6183 -9.0006 -0.0000 0.0000 -0.0000 -0.0000 -0.0000 0.0000 -5.2570 -9.1132 -3.8175 13.3594 3.3112 2.9909 -0.0000 -0.0000 -11.4842 -6.0215 -12.7465 -0.3652 0.0000 -0.0000 -0.0000 0.0000 0.0000 0.0000 3.2993 3.4892 -37.2426 11.4728 0.0000 0.0000 -12.7747 -4.3211 3.5966 0.6973 0.0000 0.0000 2.2819 -2.3965 11.9464 10.8416 0.0000 0.0000 -9.2863 6.4598 3.1672 -3.1981 0.0000 -0.0000
 -2.1754 -100.7250 37.5947 1.5661 1.2175 -175.0010 1.2230 -0.6933 -0.6855 0.8353 0.2132 -0.1219 -1.5210 -0.8400 -1.4059 -0.9710 0.4634 -0.0925 0.5868 -0.8529 -1.9300 -5.8247 2.7673 -0.5522 -2.1761 11.5440 -0.3926 4.7499 2.4126 -4.7529 0.0000 0.0000 9.8133 -0.5570 8.3864 -9.0329 0.0000 0.0000 0.0000 -0.0000 -0.0000 0.0000 -5.3202 -9.1087 -3.8058 13.3315 3.3467 2.9781 -0.0000 -0.0000 -11.4988 -6.0296 -12.8790 -0.3315 0.0000 0.0000 0.0000 -0.0000 -0.0000 0.0000 3.3713 3.5184 -37.2475 11.4602 0.0000 0.0000 -12.7782 -4.3427 3.6116 0.6868 0.0000 0.0000 2.3609 -2.3609 11.9498 10.8206 0.0000 0.0000 -9.3128 6.4405 3.1798 -3.1917 0.0000 -0.0000
 -2.1903 -100.7062 37.5933 1.6011 1.2294 -175.0208 1.2148 -0.6723 -0.6871 0.8320 0.2150 -0.1215 -1.5310 -0.8264 -1.4097 -0.9728 0.4651 -0.0963 0.6033 -0.8761 -1.9364 -5.8027 2.7584 -0.5526 -2.2627 11.5732 -0.3569 4.7616 2.3967 -4.7400 0.0000 0.0000 9.7915 -0.4926 8.1797 -9.0581 0.0000 -0.0000 0.0000 0.0000 -0.0000 -0.0000 -5.3784 -9.1027 -3.7967 13.2987 3.3884 2.9623 -0.0000 -0.0000 -11.5172 -6.0407 -12.9944 -0.3047 0.0000 0.0000 0.0000 -0.0000 -0.0000 0.0000 3.4428 3.5478 -37.2419 11.4521 0.0000 0.0000 -12.7862 -4.3637 3.6210 0.6813 0.0000 0.0000 2.4437 -2.3252 11.9517 10.7987 0.0000 0.0000 -9.3425 6.4205 3.1983 -3.1851 0.0000 -0.0000
 -2.2048 -100.6876 37.5918 1.6383 1.2398 -175.0454 1.2080 -0.6525 -0.6883 0.8292 0.2162 -0.1211 -1.5398 -0.8124 -1.4089 -0.9729 0.4667 -0.0994 0.6220 -0.8976 -1.9419 -5.7805 2.7478 -0.5564 -2.3441 11.5946 -0.3213 4.7766 2.3763 -4.7247 0.0000 0.0000 9.7701 -0.4288 8.0077 -9.0746 -0.0000 0.0000 -0.0000 -0.0000 -0.0000 -0.0000 -5.4280 -9.0953 -3.7912 13.2567 3.4355 2.9441 -0.0000 -0.0000 -11.5392 -6.0518 -13.0886 -0.2829 -0.0000 0.0000 0.0000 0.0000 -0.0000 0.0000 3.5127 3.5762 -37.2266 11.4486 0.0000 0.0000 -12.7980 -4.3839 3.6251 0.6800 0.0000 0.0000 2.5288 -2.2911 11.9524 10.7768 0.0000 0.0000 -9.3753 6.4003 3.2220 -3.1786 0.0000 -0.0000
 -2.2187 -100.6697 37.5901 1.6775 1.2488 -175.0743 1.2040 -0.6339 -0.6889 0.8252 0.2164 -0.1201 -1.5458 -0.7986 -1.4034 -0.9717 0.4684 -0.1020 0.6442 -0.9166 -1.9468 -5.7598 2.7363 -0.5627 -2.4160 11.6077 -0.2877 4.7942 2.3513 -4.7071 0.0000 0.0000 9.7507 -0.3667 7.8765 -9.0814 -0.0000 -0.0000 -0.0000 0.0000 -0.0000 0.0000 -5.4663 -9.0872 -3.7898 13.2031 3.4881 2.9229 -0.0000 -0.0000 -11.5634 -6.0617 -13.1598 -0.2658 0.0000 -0.0000 -0.0000 0.0000 0.0000 0.0000 3.5801 3.6036 -37.2021 11.4507 0.0000 0.0000 -12.8132 -4.4037 3.6241 0.6820 0.0000 0.0000 2.6152 -2.2592 11.9515 10.7556 0.0000 0.0000 -9.4101 6.3802 3.2506 -3.1733 0.0000 -0.0000
 -2.2317 -100.6528 37.5883 1.7157 1.2556 -175.1062 1.1993 -0.6170 -0.6897 0.8221 0.2161 -0.1197 -1.5500 -0.7850 -1.3932 -0.9689 0.4695 -0.1036 0.6679 -0.9324 -1.9505 -5.7393 2.7242 -0.5717 -2.4783 11.6110 -0.2560 4.8172 2.3239 -4.6873 0.0000 0.0000 9.7338 -0.3103 7.7877 -9.0766 -0.0000 0.0000 -0.0000 0.0000 -0.0000 0.0000 -5.4921 -9.0794 -3.7933 13.1349 3.5470 2.9007 -0.0000 -0.0000 -11.5905 -6.0702 -13.2085 -0.2520 -0.0000 0.0000 -0.0000 0.0000 0.0000 0.0000 3.6411 3.6292 -37.1696 11.4588 0.0000 0.0000 -12.8314 -4.4232 3.6178 0.6863 0.0000 0.0000 2.6977 -2.2302 11.9477 10.7373 0.0000 0.0000 -9.4470 6.3602 3.2839 -3.1694 0.0000 -0.0000
 -2.2438 -100.6368 37.5864 1.7548 1.2603 -175.1400 1.1967 -0.6020 -0.6898 0.8182 0.2149 -0.1189 -1.5515 -0.7717 -1.3799 -0.9646 0.4705 -0.1048 0.6936 -0.9448 -1.9534 -5.7184 2.7114 -0.5828 -2.5278 11.6060 -0.2279 4.8436 2.2933 -4.6652 0.0000 0.0000 9.7212 -0.2586 7.7406 -9.0627 0.0000 -0.0000 -0.0000 0.0000 -0.0000 -0.0000 -5.5049 -9.0719 -3.8018 13.0520 3.6105 2.8768 -0.0000 -0.0000 -11.6189 -6.0773 -13.2348 -0.2406 -0.0000 -0.0000 0.0000 0.0000 0.0000 0.0000 3.6989 3.6526 -37.1331 11.4714 0.0000 0.0000 -12.8509 -4.4432 3.6093 0.6914 0.0000 0.0000 2.7784 -2.2049 11.9426 10.7215 0.0000 0.0000 -9.4848 6.3408 3.3196 -3.1671 0.0000 -0.0000
 -2.2550 -100.6220 37.5844 1.7898 1.2623 -175.1747 1.1906 -0.5892 -0.6892 0.8144 0.2134 -0.1188 -1.5505 -0.7586 -1.3642 -0.9589 0.4716 -0.1056 0.7207 -0.9544 -1.9553 -5.6981 2.6993 -0.5947 -2.5656 11.5922 -0.2029 4.8741 2.2618 -4.6408 0.0000 0.0000 9.7128 -0.2126 7.7301 -9.0380 -0.0000 -0.0000 -0.0000 -0.0000 -0.0000 0.0000 -5.5058 -9.0649 -3.8152 12.9525 3.6773 2.8533 -0.0000 -0.0000 -11.6494 -6.0806 -13.2427 -0.2292 -0.0000 0.0000 0.0000 0.0000 0.0000 0.0000 3.7477 3.6739 -37.0929 11.4890 0.0000 0.0000 -12.8710 -4.4635 3.5979 0.6963 0.0000 0.0000 2.8505 -2.1834 11.9356 10.7108 0.0000 0.0000 -9.5235 6.3216 3.3574 -3.1666 0.0000 -0.0000
 -2.2653 -100.6076 37.5825 1.8317 1.2634 -175.2081 1.1936 -0.5770 -0.6888 0.8093 0.2113 -0.1182 -1.5479 -0.7465 -1.3489 -0.9523 0.4723 -0.1055 0.7496 -0.9599 -1.9567 -5.6761 2.6869 -0.6070 -2.5897 11.5734 -0.1809 4.9065 2.2283 -4.6148 0.0000 0.0000 9.7104 -0.1744 7.7471 -9.0067 0.0000 0.0000 0.0000 0.0000 -0.0000 0.0000 -5.4951 -9.0600 -3.8336 12.8388 3.7479 2.8294 -0.0000 -0.0000 -11.6806 -6.0809 -13.2347 -0.2170 0.0000 0.0000 0.0000 0.0000 -0.0000 0.0000 3.8026 3.6930 -37.0584 11.5071 0.0000 0.0000 -12.8896 -4.4865 3.5908 0.7001 0.0000 0.0000 2.9275 -2.1647 11.9262 10.7016 0.0000 0.0000 -9.5613 6.3030 3.3958 -3.1680 0.0000 -0.0000
